<?xml version="1.0" encoding="UTF-8" standalone="no"?>
<!-- Generator: Adobe Illustrator 25.0.0, SVG Export Plug-In . SVG Version: 6.00 Build 0)  -->

<svg
   xmlns:dc="http://purl.org/dc/elements/1.1/"
   xmlns:cc="http://creativecommons.org/ns#"
   xmlns:rdf="http://www.w3.org/1999/02/22-rdf-syntax-ns#"
   xmlns:svg="http://www.w3.org/2000/svg"
   xmlns="http://www.w3.org/2000/svg"
   xmlns:sodipodi="http://sodipodi.sourceforge.net/DTD/sodipodi-0.dtd"
   xmlns:inkscape="http://www.inkscape.org/namespaces/inkscape"
   version="1.1"
   id="Layer_1"
   x="0px"
   y="0px"
   viewBox="0 0 700 700"
   xml:space="preserve"
   sodipodi:docname="kabum-logo.svg"
   width="700"
   height="700"
   inkscape:export-filename="G:\Users\suitedoalex\sites\kabum-logo-0.png"
   inkscape:export-xdpi="561.73712"
   inkscape:export-ydpi="561.73712"
   inkscape:version="0.92.4 (5da689c313, 2019-01-14)"><metadata
   id="metadata23"><rdf:RDF><cc:Work
       rdf:about=""><dc:format>image/svg+xml</dc:format><dc:type
         rdf:resource="http://purl.org/dc/dcmitype/StillImage" /><dc:title></dc:title></cc:Work></rdf:RDF></metadata><defs
   id="defs21" /><sodipodi:namedview
   pagecolor="#ffffff"
   bordercolor="#666666"
   borderopacity="1"
   objecttolerance="10"
   gridtolerance="10"
   guidetolerance="10"
   inkscape:pageopacity="0"
   inkscape:pageshadow="2"
   inkscape:window-width="1600"
   inkscape:window-height="837"
   id="namedview19"
   showgrid="false"
   inkscape:zoom="0.37369251"
   inkscape:cx="-150.53307"
   inkscape:cy="704.26223"
   inkscape:window-x="-8"
   inkscape:window-y="-8"
   inkscape:window-maximized="1"
   inkscape:current-layer="Layer_1" />
<style
   type="text/css"
   id="style2">
	.st0{fill-rule:evenodd;clip-rule:evenodd;fill:#FFFFFF;}
	.st1{fill-rule:evenodd;clip-rule:evenodd;fill:#175FAD;}
	.st2{fill:#175FAD;}
	.st3{fill-rule:evenodd;clip-rule:evenodd;fill:#097BBB;}
	.st4{fill-rule:evenodd;clip-rule:evenodd;fill:#F05223;}
	.st5{fill-rule:evenodd;clip-rule:evenodd;fill:#F26B21;}
</style>
<path
   class="st0"
   d="m 166.1499,401.84158 c -10.9143,1.76037 -23.58896,-7.39356 -25.7014,-18.30785 -1.76037,-9.85807 -3.87282,-19.36407 -6.68941,-28.87007 -5.63318,7.39355 -8.80185,13.73089 -11.97051,22.88481 -3.87282,11.26637 -11.26637,20.77237 -23.588962,22.88482 -4.57697,0.70414 -9.506,0.35206 -14.08297,-0.35208 l -11.618443,-1.76037 3.168667,-11.26637 c 11.618446,-39.43229 25.701408,-81.3291 45.417548,-117.24065 4.22489,-8.0977 13.37881,-14.78711 22.88481,-10.91429 9.15393,3.52074 10.56223,13.73088 9.15393,22.18066 -0.35207,1.4083 -0.35207,2.46451 -0.70415,3.87281 12.32259,-10.56222 25.70141,-20.06822 40.48852,-26.75763 7.39356,-3.16866 15.84333,-2.81659 21.12444,3.87282 5.98526,7.39355 4.22489,18.65992 -2.81659,24.2931 -3.16866,2.81661 -6.33733,5.28112 -9.506,8.09771 -3.87282,3.52074 1.76036,5.28111 5.98526,2.46452 5.98526,-3.52074 12.67467,-5.63319 17.95577,-7.04148 12.3226,-2.81659 26.05348,-2.11244 36.6157,5.63319 0.70416,-2.11245 1.4083,-4.57696 2.11245,-6.68941 2.81659,-8.44978 5.63318,-16.54749 8.44977,-24.99726 l 2.46452,-7.04148 h 7.39356 c 13.3788,0 26.75762,0.70415 40.13643,0.70415 16.54749,-0.35208 39.43229,2.11244 42.95304,21.82859 0.70415,3.87281 1.05622,7.04147 0.70415,10.56222 3.87281,-0.70414 8.44977,-0.35208 12.32259,2.11245 6.68941,4.22488 8.80185,11.61843 7.74563,18.65992 -1.4083,7.04147 4.22488,6.68941 5.98525,0 2.46452,-5.63318 5.28112,-10.56222 8.80185,-14.08296 6.33733,-5.98526 15.49127,-9.85808 23.58896,-4.57696 0.35208,0.35207 0.70415,0.35207 1.05623,0.70414 2.81659,-5.98526 5.63318,-11.61844 8.80185,-17.25163 5.98525,-10.91429 17.25163,-20.77236 30.63044,-16.1954 10.9143,3.87281 14.78711,15.49126 14.08296,26.05348 -0.35207,5.98525 -0.70415,11.61844 -1.05622,17.6037 6.33733,-10.21015 12.67466,-20.77237 19.01199,-31.33459 2.11245,-3.52074 4.92904,-6.33733 8.09771,-8.80186 12.67466,-9.15392 27.46177,-8.09769 33.7991,1.76038 7.39356,-8.44977 21.12445,-10.21015 29.57423,-2.46452 5.63318,5.28112 6.6894,12.67467 4.57696,19.71614 -4.57696,14.78712 -9.85808,30.27837 -15.84333,44.71341 4.57696,1.05622 10.21014,3.52074 15.49125,6.68941 3.16867,-3.52074 8.44977,-4.57697 13.37881,-4.57697 10.21015,0.35207 28.87008,13.02674 35.91155,20.42029 3.52075,3.52074 5.63319,8.44978 4.92904,13.37882 -1.05622,13.02674 -16.1954,19.012 -26.40555,23.94104 -8.80185,4.57696 -17.95577,9.506 -27.1097,13.02673 -2.11244,0.70415 -4.57697,1.05623 -6.6894,1.05623 2.46451,3.52073 3.87281,7.74563 3.87281,12.32259 0,17.25163 -14.08296,30.98251 -30.98252,30.98251 H 179.17664 c -11.97051,0 -21.82859,-9.85808 -21.82859,-21.82859 0,-6.68941 3.16867,-14.43504 8.80185,-20.06822 z"
   id="path4"
   inkscape:connector-curvature="0"
   style="clip-rule:evenodd;fill:#ffffff;fill-rule:evenodd;stroke-width:3.52074051"
   inkscape:export-filename="G:\Users\suitedoalex\sites\kabum-logo-4.png"
   inkscape:export-xdpi="69.188751"
   inkscape:export-ydpi="69.188751" />
<path
   class="st1"
   d="m 513.2949,368.74662 c 6.68941,-6.33733 17.6037,-0.35207 14.78711,5.63318 -0.35208,7.39357 -5.28111,11.61845 -11.61845,14.08296 -4.22488,1.05623 -8.80184,3.16867 -11.61844,-0.70414 -1.76036,-6.33733 3.52074,-14.08296 8.44978,-19.012 z m -114.07199,23.23689 c 12.67467,-38.72814 24.99726,-77.10422 44.7134,-111.2554 9.506,-18.65992 26.40555,-14.08296 24.99726,4.57697 -0.70415,13.02674 -1.4083,26.05347 -2.46452,39.08021 -0.35207,7.39355 6.33734,6.33734 9.85808,1.4083 9.85806,-16.1954 19.71614,-32.03873 29.57422,-48.23414 7.04147,-11.61845 30.63043,-16.54748 24.99725,3.16866 -5.98526,34.50326 -17.25163,67.24614 -32.03874,98.93281 -3.16867,9.85807 -15.84333,13.37881 -14.08296,2.11245 4.57696,-17.25163 9.15392,-34.50326 13.73088,-51.40282 2.46453,-10.21014 -4.22488,-4.92904 -10.56221,7.04148 -7.74563,14.08297 -13.73089,27.10971 -23.58897,41.89681 -11.61843,17.60371 -23.23688,16.89955 -22.8848,-2.46451 0.70414,-11.97053 1.76037,-23.94104 2.81659,-36.26363 1.05622,-13.02674 -2.11245,-15.49125 -7.39355,-1.05623 -15.84334,47.53 -27.10971,54.21941 -37.67193,52.45904 z m -107.0305,-54.57148 c -3.16867,3.16867 -5.63318,11.97052 -7.74563,25.7014 0,4.57697 1.76037,6.68941 4.92904,7.04149 5.2811,0 11.61843,0.35207 16.54747,0 23.23688,-0.70415 34.15118,-30.98251 11.97052,-32.74289 -9.15393,0 -16.54748,0 -25.7014,0 z m 17.95578,-48.58621 c -3.87282,0 -7.74564,13.37881 -7.74564,21.47651 -0.70414,6.68941 5.63319,5.63319 10.56223,5.98526 16.19539,0.35207 23.23688,-4.92904 28.51799,-14.08296 3.87281,-9.15393 1.76037,-13.73089 -8.80185,-13.73089 -7.74563,0 -15.13918,0.35208 -22.53273,0.35208 z m -27.46178,-21.82859 c -12.67467,36.61569 -24.99726,76.04799 -29.9263,108.08673 -1.40829,15.49125 3.52075,17.25162 13.37882,17.25162 9.85807,0 19.71614,-0.35207 29.57422,-0.35207 13.02673,-1.05622 25.7014,-6.33734 36.26363,-19.012 1.76037,-2.11244 3.52073,-1.05622 3.16866,0.35207 0,14.43504 12.67467,29.22215 37.31985,11.26638 5.2811,-2.81659 7.04147,-2.46453 7.04147,0.70414 0,2.11245 -0.70414,4.22489 -1.40829,5.98525 13.73088,1.05623 27.81384,-27.10969 42.60096,-82.73739 0.70415,-8.44977 -4.92904,-11.97051 -12.67467,-4.22489 -10.21014,9.506 -14.43504,46.82585 -24.64518,59.50052 -13.73088,20.42029 -27.1097,8.80184 -24.64518,-0.70416 5.63318,-25.7014 12.67466,-30.27836 16.89955,-53.51524 2.11244,-11.61845 -10.21015,-13.7309 -17.25162,-2.46452 -4.57697,8.0977 -7.74563,16.89955 -10.21016,25.7014 -3.16866,8.44977 -8.0977,7.74563 -9.506,2.81659 -0.70414,-4.22488 -3.52073,-7.74562 -7.04147,-10.56221 15.13918,-10.56223 26.05347,-23.23689 23.23688,-44.36134 -2.11244,-10.21015 -14.08296,-13.73088 -32.3908,-13.02674 -12.67467,0 -26.40557,-0.35206 -39.78437,-0.70414 z m -51.40281,83.44155 c -3.16867,-1.05623 -11.61845,2.11243 -16.89955,5.63318 -9.506,7.39355 -8.80186,10.91429 -7.74563,15.84333 2.11244,5.2811 13.02673,3.87281 20.77236,-4.57696 7.74563,-8.44978 8.44978,-14.78712 3.87282,-16.89955 z m -15.13919,-24.64519 c -2.11244,4.92904 -18.30785,0 -16.54747,-6.33734 0.70415,-12.67466 39.78436,-29.92629 58.09221,-13.73088 12.67467,14.43504 -16.54747,53.51525 -16.19541,80.97702 0,2.8166 -1.76037,4.2249 -5.2811,4.2249 -3.52074,0 -7.04149,0 -10.21015,0 -3.16867,0 -5.63318,-2.11245 -7.74563,-5.28112 -9.15393,8.09771 -35.91155,11.97053 -39.08022,-2.46451 -2.46451,-12.32259 -2.81659,-22.53274 14.08296,-35.55948 9.85808,-6.6894 22.18067,-8.80185 38.024,-11.97052 6.68941,-2.81659 10.21014,-13.02674 3.52074,-15.84333 -7.39356,-3.87281 -13.37882,0 -18.65993,5.98526 z M 85.877028,389.87106 c 12.32259,-42.24888 26.053472,-83.44154 44.361322,-115.1282 5.28111,-9.85808 15.49125,-9.15393 12.67466,4.22488 -1.40829,7.74563 -3.52074,15.49126 -6.33733,22.88482 -1.76037,5.63318 2.46452,9.50599 10.21015,2.11244 18.30785,-17.95577 34.15118,-28.16592 49.99452,-36.26363 10.21014,-3.87281 12.67466,5.98526 7.39355,10.9143 -22.88481,17.6037 -42.24889,36.96778 -34.50326,72.87933 1.76037,10.21014 2.81659,20.77237 1.76037,30.98251 -3.87282,17.25163 -19.36407,7.04148 -20.42029,-0.35208 -2.46453,-11.26636 -4.57696,-22.88481 -8.09771,-33.7991 -2.46451,-8.80186 -8.80184,-10.56222 -15.49125,-1.4083 -5.63318,7.04148 -10.9143,13.37881 -14.78712,27.46177 -7.74563,16.54749 -16.899552,16.89955 -26.757612,15.49126 z M 521.04053,354.31159 c -0.35208,5.63319 4.57696,7.74562 10.91429,-0.70415 11.97051,-20.77237 22.18066,-46.1217 31.33459,-73.93554 3.87282,-13.02675 -13.02674,-14.78712 -17.60371,-5.63319 -8.80184,15.49125 -16.89955,44.7134 -24.64517,80.27288 z"
   id="path6"
   inkscape:connector-curvature="0"
   style="clip-rule:evenodd;fill:#175fad;fill-rule:evenodd;stroke-width:3.52074051"
   inkscape:export-filename="G:\Users\suitedoalex\sites\kabum-logo-4.png"
   inkscape:export-xdpi="69.188751"
   inkscape:export-ydpi="69.188751" />
<path
   class="st2"
   d="m 539.70045,434.23239 2.81659,-10.56222 c 0.35207,-1.40829 1.05623,-2.81659 1.40829,-3.87282 0.70416,-1.05622 1.40831,-2.11243 2.11245,-3.16866 0.70415,-1.05622 1.4083,-1.76036 2.46452,-2.11244 0.70415,-0.35208 1.76037,-0.70415 2.46452,-0.70415 0.35207,0 0.35207,0 0.70415,0 0.35207,0 0.35207,0 0.35207,0 l 1.05623,-4.22489 c 0,0 -0.35208,0 -0.70416,0 -0.35207,0 -0.35207,0 -0.70414,0 -1.05623,0 -2.11245,0.35208 -3.16867,0.70414 -1.05622,0.35208 -1.76037,1.05623 -2.8166,2.11245 -0.70414,0.70415 -1.40829,1.76037 -2.11243,2.81659 v 0 c 0.35206,-1.05622 0.35206,-1.76037 0.70414,-2.81659 0.35208,-0.70414 0.35208,-1.76037 0.70415,-2.46451 h -3.52074 c 0,0.70414 -0.35208,1.76037 -0.70414,2.46451 -0.35208,1.05622 -0.35208,1.76037 -0.70416,2.81659 -0.35207,1.05623 -0.35207,2.11245 -0.70415,3.16867 l -4.22488,15.49125 z m -20.77237,-11.61844 c 0.35207,-1.4083 1.05623,-2.8166 1.76037,-3.87282 0.70415,-1.05621 1.40829,-2.11244 2.11245,-2.81659 0.70415,-0.70415 1.76037,-1.40829 2.46451,-1.76037 1.05623,-0.35207 1.76037,-0.70415 2.8166,-0.70415 0.70414,0 1.4083,0 2.11244,0.35208 0.70415,0.35207 1.05623,0.70415 1.40829,1.40829 0.35208,0.70415 0.70416,1.05623 0.70416,1.76037 0,0.70416 0,1.4083 0,2.11245 0,1.05622 -0.35208,2.11244 -0.70416,3.52074 -0.35206,1.05622 -1.05622,2.46452 -1.40829,3.52074 -0.70414,1.05623 -1.4083,2.11244 -2.46452,3.16866 -1.05621,1.05623 -1.76037,1.76037 -2.81659,2.11245 -1.05622,0.35208 -2.11244,0.70414 -3.52074,0.70414 -1.40829,0 -2.11245,-0.35206 -2.81659,-1.05622 -0.70415,-0.70414 -0.70415,-1.40829 -0.70415,-2.46451 0,-0.70415 0,-1.05623 0.35207,-1.76037 0,-0.35208 0.35208,-1.05622 0.35208,-1.4083 z m 2.46452,-23.58896 -7.39355,26.05348 c 0,0.70415 -0.35208,1.05622 -0.35208,1.76037 0,0.70414 -0.35207,1.40829 -0.35207,1.76037 0,1.4083 0,2.81659 0.70415,3.52073 0.70414,1.05623 1.40829,1.40831 2.46451,2.11245 1.05622,0.35208 2.46452,0.70415 3.87282,0.70415 1.76036,0 3.16867,-0.35207 4.57696,-0.70415 1.4083,-0.35208 2.81659,-1.05622 3.87281,-1.76037 1.05622,-0.70414 2.11245,-1.76037 3.16867,-2.81659 1.05622,-1.05622 1.76037,-2.11245 2.46452,-3.52074 0.70415,-1.4083 1.05622,-2.46452 1.76036,-3.87281 0.35208,-1.4083 0.70416,-2.46453 0.70416,-3.87282 0,-1.05622 0,-2.11244 0,-3.16867 -0.35208,-1.05622 -0.35208,-2.11244 -1.05622,-2.81659 -0.35208,-0.70414 -1.05623,-1.40829 -2.11245,-2.11245 -1.05622,-0.35206 -2.11245,-0.70414 -3.16867,-0.70414 -1.05621,0 -2.11244,0.35208 -3.16866,0.70414 -1.05622,0.35208 -2.11245,1.05623 -3.16867,1.76038 -1.05622,0.70415 -1.76037,1.76037 -2.81659,2.8166 v 0 l 4.57696,-15.49127 h -4.57696 z m -15.13919,35.91155 c 0.70415,0 1.05623,0 1.76037,-0.35207 0.35208,-0.35208 1.05623,-0.70416 1.05623,-1.05622 0.35208,-0.35208 0.35208,-1.05623 0.70414,-1.76037 0,-0.70416 0,-1.05623 -0.35206,-1.4083 -0.35208,-0.35207 -0.35208,-0.70415 -0.70415,-1.05623 -0.35208,-0.35206 -1.05622,-0.35206 -1.4083,-0.35206 -0.70415,0 -1.05623,0 -1.76037,0.35206 -0.35208,0.35208 -1.05622,0.70416 -1.05622,1.05623 -0.35208,0.35207 -0.35208,1.05622 -0.70415,1.76036 0,0.70416 0,1.05623 0.35207,1.40831 0.35208,0.35206 0.35208,0.70414 0.70415,1.05622 0.35207,0 1.05623,0.35207 1.40829,0.35207 z m -35.91155,-0.70415 3.16867,-11.97051 c 0.35207,-1.4083 0.70415,-2.46453 1.40829,-3.52075 0.70416,-1.05621 1.40831,-2.11244 2.11245,-2.81659 0.70415,-0.70415 1.76037,-1.40829 2.46452,-1.76037 0.70415,-0.35207 1.76037,-0.70415 2.46452,-0.70415 1.05622,0 1.76037,0.35208 2.11245,0.70415 0.35206,0.35208 0.70414,1.05622 1.05621,1.4083 0,0.70415 0,1.40829 0,2.11245 0,0.35206 0,1.05621 -0.35207,1.40829 0,0.35208 -0.35208,1.05622 -0.35208,1.4083 l -3.87281,14.08296 h 3.87281 l 3.16867,-12.32259 c 0.35208,-1.4083 0.70415,-2.46453 1.40829,-3.52075 0.70416,-1.05621 1.40831,-2.11244 2.11245,-2.81659 0.70415,-0.70415 1.4083,-1.40829 2.46453,-1.76037 0.70414,-0.35207 1.76036,-0.70415 2.46451,-0.70415 1.05622,0 1.76037,0 2.11245,0.35208 0.35206,0.35207 0.70414,0.70415 1.05622,1.40829 0.35207,0.70415 0.35207,1.4083 0,2.11245 0,0.35208 0,1.05622 -0.35208,1.40829 0,0.70416 -0.35208,1.05622 -0.35208,1.4083 l -3.87281,13.73088 h 3.87281 l 3.87282,-14.08296 c 0,-0.35206 0.35208,-1.05622 0.35208,-1.40829 0,-0.35208 0.35208,-1.05622 0.35208,-1.4083 0,-0.35207 0,-0.70414 0,-1.40829 0,-1.05622 0,-2.11245 -0.35208,-2.81659 -0.35208,-0.70415 -0.70415,-1.4083 -1.05623,-2.11245 -0.35207,-0.35208 -1.05622,-0.70414 -1.76036,-1.05622 -0.70415,-0.35208 -1.40831,-0.35208 -2.11245,-0.35208 -1.76037,0 -3.52074,0.35208 -4.92904,1.4083 -1.76037,1.05623 -2.81659,2.11245 -4.22488,3.87282 0,-1.05623 0,-2.11245 -0.35208,-2.81659 -0.35207,-0.70415 -1.05622,-1.40831 -1.76037,-1.76037 -0.70414,-0.35208 -1.76037,-0.70416 -2.81659,-0.70416 -1.76037,0 -3.16867,0.35208 -4.57696,1.4083 -1.4083,0.70415 -2.81659,2.11245 -4.2249,3.87282 v 0 l 1.05623,-4.57696 h -3.52074 c -0.35208,1.05622 -0.35208,2.11244 -0.70414,3.16866 -0.35208,1.05622 -0.70416,2.46452 -1.05623,3.87281 l -4.57696,17.25163 z m -17.25163,-2.81659 c -1.05621,0 -2.11243,-0.35208 -2.81659,-1.05622 -0.70414,-0.70415 -1.40829,-1.40829 -1.76037,-2.46452 -0.35206,-1.05622 -0.35206,-2.11244 -0.35206,-3.52075 0,-1.05621 0.35206,-2.11243 0.70414,-3.52073 0.35207,-1.05623 0.70415,-2.11245 1.40829,-3.16866 0.70416,-1.05623 1.4083,-1.76038 2.11245,-2.81659 0.70414,-0.70416 1.76037,-1.40831 2.46452,-1.76038 1.05622,-0.35207 1.76037,-0.70415 2.8166,-0.70415 1.05621,0 2.11243,0.35208 2.81659,0.70415 0.70414,0.35207 1.05621,1.05622 1.76037,1.76038 0.35206,0.70414 0.70414,1.40829 0.70414,2.11243 0,0.70416 0,1.4083 0,2.11245 0,1.05622 -0.35208,2.11244 -0.70414,3.52074 -0.35208,1.05622 -0.70416,2.11244 -1.40831,3.16867 -0.70414,1.05622 -1.40829,1.76036 -2.11244,2.81659 -0.70415,0.70414 -1.76037,1.4083 -2.46452,1.76037 -1.05622,1.05622 -2.11244,1.05622 -3.16867,1.05622 z m -0.70414,3.52074 c 1.76037,0 3.16867,-0.35207 4.57696,-0.70415 1.4083,-0.70414 2.81659,-1.40829 3.87281,-2.46451 1.05623,-1.05623 2.11245,-2.11245 3.16867,-3.52075 1.05623,-1.40829 1.4083,-2.81659 2.11245,-4.22488 0.35207,-1.4083 0.70415,-2.8166 1.05621,-4.57696 0,-1.40831 0,-2.46453 -0.35206,-3.87282 -0.35208,-1.05622 -0.70415,-2.11245 -1.4083,-3.16867 -0.70415,-1.05622 -1.76037,-1.76037 -2.8166,-2.11245 -1.05622,-0.70414 -2.46451,-0.70414 -4.22488,-0.70414 -1.4083,0 -3.16867,0.35208 -4.57696,0.70414 -1.4083,0.70416 -2.81659,1.40831 -3.87282,2.11245 -1.05622,1.05622 -2.11244,2.11245 -3.16867,3.52074 -1.05622,1.4083 -1.76036,2.81659 -2.11244,4.22489 -0.70415,1.40829 -1.05623,3.16867 -1.05623,4.57696 0,1.4083 0,2.81659 0.35208,3.87282 0.35208,1.05622 0.70415,2.11244 1.4083,3.16867 0.70415,1.05622 1.76037,1.76037 2.8166,2.11243 1.40829,0.70416 2.81659,1.05623 4.22488,1.05623 z m -11.26637,-4.92903 c -0.35208,0.35207 -1.05622,0.35207 -1.40829,0.70414 -0.70416,0.35207 -1.05622,0.35207 -1.76038,0.35207 -0.70415,0 -1.40829,0.35208 -2.46451,0.35208 -1.40829,0 -2.46452,-0.35208 -3.16867,-0.70415 -0.70415,-0.35207 -1.40829,-1.4083 -1.76037,-2.11244 -0.35207,-1.05623 -0.35207,-2.11245 -0.35207,-3.52074 0,-1.05622 0.35207,-2.11245 0.70415,-3.52075 0.35206,-1.05621 1.05622,-2.11243 1.76036,-3.16866 0.70415,-1.05622 1.40831,-1.76037 2.46452,-2.81659 1.05622,-0.70414 1.76038,-1.4083 2.81659,-1.76037 1.05622,-0.35208 2.11245,-0.70415 3.52075,-0.70415 1.05622,0 1.76037,0 2.46451,0.35207 0.70415,0 1.05623,0.35208 1.76037,0.70415 l 1.4083,-3.16866 c -0.35208,0 -0.70415,-0.35208 -1.05622,-0.35208 -0.35208,0 -1.05622,-0.35208 -1.76037,-0.35208 -0.70416,0 -1.4083,0 -2.11245,-0.35206 -1.76037,0 -3.52073,0.35206 -4.92904,0.70414 -1.40829,0.70415 -2.81659,1.4083 -4.22488,2.46452 -1.4083,1.05622 -2.46452,2.11244 -3.52075,3.52074 -1.05622,1.40829 -1.76036,2.8166 -2.46451,4.22489 -0.70415,1.4083 -1.05622,3.16867 -1.05622,4.92904 0,1.4083 0,2.46451 0.35207,3.52073 0.35207,1.05623 0.70415,2.11245 1.4083,2.81659 0.70414,0.70416 1.76036,1.40831 2.81659,2.11245 1.05622,0.35208 2.46452,0.70415 3.87281,0.70415 1.05623,0 2.11245,0 3.16867,-0.35207 1.05623,0 1.76037,-0.35208 2.46452,-0.70416 0.70414,-0.35206 1.4083,-0.35206 1.76037,-0.70414 z m -22.18066,4.92903 c 0.70415,0 1.05621,0 1.76037,-0.35207 0.35207,-0.35208 1.05622,-0.70416 1.05622,-1.05622 0.35207,-0.35208 0.35207,-1.05623 0.70415,-1.76037 0,-0.70416 0,-1.05623 -0.35208,-1.4083 -0.35207,-0.35207 -0.35207,-0.70415 -0.70414,-1.05623 -0.35208,-0.70414 -1.05623,-0.70414 -1.40831,-0.70414 -0.70414,0 -1.05621,0 -1.76036,0.35208 -0.35207,0.35206 -1.05623,0.70414 -1.05623,1.05622 -0.35206,0.35207 -0.35206,1.05621 -0.70414,1.76037 0,0.70414 0,1.05622 0.35208,1.40829 0.35206,0.35208 0.35206,0.70414 0.70414,1.05622 0.35208,0.35208 0.70415,0.70415 1.4083,0.70415 z m -34.85534,-0.70415 2.8166,-10.91429 c 0.35207,-1.76038 1.05622,-3.16867 1.76038,-4.22489 0.70414,-1.05623 1.40829,-2.11245 2.46451,-2.81659 0.70414,-0.70415 1.76037,-1.05623 2.46451,-1.05623 0.70416,0 1.05623,0 1.4083,0.35208 0.35207,0.35207 0.35207,0.70415 0.70415,1.05622 0,0.35207 0,1.05623 0,1.40829 0,0.35208 0,0.70415 -0.35208,1.40831 0,0.35206 -0.35207,1.05622 -0.35207,1.40829 l -3.52073,13.37881 h 7.04147 l 2.81659,-10.91429 c 0.35208,-1.76038 1.05623,-3.16867 1.76037,-4.22489 0.70416,-1.05623 1.4083,-2.11245 2.11245,-2.81659 0.70414,-0.70415 1.76037,-1.05623 2.46451,-1.05623 0.70416,0 1.05623,0 1.4083,0.35208 0.35208,0.35207 0.70415,0.70415 0.70415,1.05622 0,0.35207 0,1.05623 0,1.40829 0,0.35208 0,1.05623 -0.35207,1.40831 0,0.35206 -0.35208,1.05622 -0.35208,1.40829 l -3.52073,13.37881 h 7.04147 l 3.87282,-14.08296 c 0,-0.35208 0.35208,-1.05622 0.35208,-1.4083 0,-0.35207 0.35206,-1.05621 0.35206,-1.40829 0,-0.35208 0,-1.05622 0,-1.4083 0,-1.40829 0,-2.46452 -0.35206,-3.52074 -0.35208,-1.05622 -1.05623,-1.76037 -1.76037,-2.11245 -0.70416,-0.35206 -1.76038,-0.70414 -3.16867,-0.70414 -1.05623,0 -2.11245,0 -3.16867,0.35208 -1.05623,0.35206 -2.11244,0.70414 -2.8166,1.40829 -1.05622,0.70415 -1.76036,1.4083 -2.81659,2.46452 0,-0.70415 0,-1.05622 -0.35206,-1.76037 -0.35208,-0.70415 -0.35208,-1.05622 -1.05623,-1.4083 -0.35208,-0.35208 -1.05622,-0.70414 -1.76037,-1.05622 -0.70415,-0.35208 -1.4083,-0.35208 -2.46452,-0.35208 -1.40829,0 -3.16866,0.35208 -4.57696,1.05622 -1.40829,0.70416 -2.81659,1.76038 -4.22488,3.52075 v 0 l 0.70414,-3.87281 h -6.33733 c -0.35208,1.05622 -0.35208,2.46451 -0.70416,3.52073 -0.35206,1.40831 -0.70414,2.8166 -1.05622,4.2249 l -4.57696,16.54747 z m -11.26636,-24.2931 -3.16866,11.26636 c -0.35208,1.76037 -1.05623,3.16866 -1.76037,4.22489 -0.70416,1.05622 -1.4083,2.11244 -2.46453,2.81659 -0.70414,0.70416 -1.76037,1.05622 -2.46451,1.05622 -0.70416,0 -1.05622,0 -1.4083,-0.35206 -0.35207,-0.35208 -0.70415,-0.70416 -0.70415,-1.05623 0,-0.35208 0,-1.05622 0,-1.4083 0,-0.35207 0,-1.05622 0.35208,-1.40829 0,-0.70416 0.35207,-1.05622 0.35207,-1.76037 l 3.52073,-13.02675 h -7.04147 l -3.87282,13.7309 c 0,0.35206 0,1.05622 -0.35207,1.76037 0,0.70414 -0.35207,1.4083 -0.35207,2.11244 0,1.40829 0,2.81659 0.35207,3.87282 0.35207,1.05622 1.05622,1.76037 2.11244,2.11243 1.05623,0.35208 2.11245,0.70416 3.16867,0.70416 1.40829,0 2.8166,-0.35208 4.57696,-1.05622 1.40829,-0.70415 2.8166,-1.76037 4.2249,-3.52074 v 0 l -0.70416,3.8728 h 6.33734 c 0.35207,-1.05621 0.70415,-2.46451 1.05621,-3.52073 0.35208,-1.40829 0.70416,-2.8166 1.05623,-4.22489 l 4.57696,-16.54748 z m -36.26362,11.97051 c 0.35206,-1.40829 1.05622,-2.46451 1.76037,-3.52074 0.70414,-1.05622 1.40829,-1.76037 2.46451,-2.46452 0.70415,-0.70415 1.76037,-0.70415 2.46452,-0.70415 0.70415,0 1.4083,0.35208 1.76037,0.70415 0.35207,0.35208 0.70415,0.70415 1.05623,1.4083 0.35206,0.70414 0.35206,1.40829 0,2.11245 0,0.70414 -0.35208,1.76036 -0.70416,2.81659 -0.35207,1.05622 -0.70414,1.76037 -1.05622,2.81659 -0.35207,0.70415 -1.05622,1.76037 -1.76037,2.46451 -0.70415,0.70415 -1.40829,1.40831 -2.11244,1.76037 -0.70415,0.35208 -1.4083,0.70416 -2.46452,0.70416 -0.70415,0 -1.40829,-0.35208 -1.76037,-0.70416 -0.35208,-0.35206 -0.70415,-1.05622 -0.70415,-2.11243 0,-0.35208 0,-1.05623 0,-1.4083 0,-0.35208 0.35207,-0.70415 0.35207,-1.40831 z m -0.70416,-22.88481 -7.04147,24.64518 c -0.35208,0.70414 -0.35208,1.4083 -0.70415,2.11245 0,0.70414 -0.35208,1.4083 -0.35208,2.11244 -0.35208,2.11245 0.35208,3.87282 1.76037,4.92904 1.4083,1.05621 3.52074,1.76037 6.33733,1.76037 2.11245,0 4.22489,-0.35208 5.98526,-1.05622 1.76037,-0.70415 3.52074,-1.40831 4.92904,-2.8166 1.40829,-1.05622 2.46452,-2.46452 3.52074,-3.87281 1.05622,-1.4083 1.76037,-2.81659 2.11245,-4.57696 0.70414,-1.76037 1.05622,-3.16867 1.05622,-4.92904 0,-1.05622 0,-2.11245 -0.35208,-3.16867 -0.35207,-1.05622 -0.70414,-1.76037 -1.05622,-2.81659 -0.70415,-0.70415 -1.40829,-1.40829 -2.11244,-1.76037 -1.05622,-0.35208 -2.11244,-0.70415 -3.16867,-0.70415 -1.05622,0 -2.11244,0 -2.81659,0.35207 -1.05622,0.35208 -1.76037,0.70416 -2.81659,1.05622 -0.70415,0.35208 -1.4083,1.05623 -2.11245,1.76038 v 0 l 4.22489,-14.08297 h -7.39356 z m -16.54747,21.47652 c -0.70415,2.11244 -1.05623,3.52074 -2.11245,4.92903 -0.70415,1.4083 -1.40829,2.11244 -2.46451,2.81659 -0.70415,0.70416 -1.40831,0.70416 -2.46453,0.70416 -0.70414,0 -1.05622,0 -1.76037,-0.35208 -0.35206,-0.35208 -0.70414,-0.70415 -0.70414,-1.40829 0,-0.70416 -0.35208,-1.4083 0,-2.11245 0,-1.05622 0.35208,-1.76037 0.70414,-2.81659 0.35208,-1.05623 0.70415,-1.76037 1.4083,-2.81659 0.70415,-1.05623 1.05623,-1.76037 1.76037,-2.46453 0.70415,-0.70414 1.40829,-1.40829 2.46452,-1.76037 0.70415,-0.35206 1.76037,-0.70414 2.81659,-0.70414 0.35208,0 0.70416,0 1.05622,0 0.35208,0 0.70415,0 1.05623,0 z m 4.57696,13.73088 c 0,-0.70414 0,-1.76037 0.35208,-2.46451 0,-1.05623 0.35206,-1.76037 0.35206,-2.81659 0,-1.05623 0.35208,-2.11245 0.70416,-2.8166 0.35207,-1.05622 0.35207,-1.76038 0.70414,-2.46452 l 3.52074,-12.67466 c -0.70414,-0.35208 -1.40829,-0.35208 -2.11245,-0.70416 -0.70414,-0.35206 -1.76036,-0.35206 -2.81659,-0.35206 -1.05622,0 -1.76037,0 -2.81659,0 -2.46451,0 -4.57696,0.35206 -6.33733,1.05622 -2.11245,0.70415 -3.52074,1.40829 -5.2811,2.46451 -1.40831,1.05623 -2.8166,2.46452 -3.87282,3.87282 -1.05622,1.40829 -1.76037,2.81659 -2.46452,4.57696 -0.70415,1.76037 -1.05623,3.16867 -1.05623,4.92904 0,1.76037 0,3.16867 0.70416,4.57696 0.35207,1.4083 1.40829,2.11245 2.46451,2.81659 1.05623,0.70415 2.46452,1.05622 3.87282,1.05622 1.05622,0 1.76037,0 2.81659,-0.35207 1.05622,-0.35207 2.11245,-1.05623 2.81659,-1.76037 1.05622,-0.70415 1.76037,-1.76037 2.81659,-3.16866 v 0 c 0,0.70414 -0.35207,1.76037 -0.35207,2.46451 0,0.70415 -0.35207,1.76037 -0.35207,2.46452 h 6.33733 z m -38.024,0 2.11245,-7.74563 2.81659,-2.46451 3.52074,10.56222 h 8.0977 l -5.63318,-14.43504 11.26637,-10.21014 h -8.80186 l -6.6894,7.39355 c -0.35207,0.35208 -0.70415,0.70414 -1.05623,1.40829 -0.35206,0.35208 -0.70414,1.05622 -1.40829,1.4083 v 0 l 5.98525,-21.12444 h -7.04147 l -9.85808,35.2074 z m -11.97051,0.70415 c 0.70414,0 1.05622,0 1.76037,-0.35207 0.35207,-0.35208 1.05622,-0.70416 1.05622,-1.05622 0.35208,-0.35208 0.35208,-1.05623 0.70414,-1.76037 0,-0.70416 0,-1.05623 -0.35206,-1.4083 -0.35208,-0.35207 -0.35208,-0.70415 -0.70416,-1.05623 -0.70414,-0.70414 -1.05622,-0.70414 -1.76037,-0.70414 -0.70414,0 -1.05622,0 -1.76037,0.35208 -0.35207,0.35206 -1.05622,0.70414 -1.05622,1.05622 -0.35207,0.35207 -0.35207,1.05621 -0.70415,1.76037 0,0.70414 0,1.05622 0.35208,1.40829 0.35207,0.35208 0.35207,0.70414 0.70415,1.05622 0.70414,0.35208 1.05622,0.70415 1.76037,0.70415 z m -29.57423,-24.64519 0.35208,24.29312 h 3.87282 l 8.0977,-13.37882 c 0.35207,-0.70414 0.70414,-1.4083 1.05622,-2.11244 0.35208,-0.70415 0.70414,-1.40829 1.05622,-2.11245 0.35208,-0.70414 0.70415,-1.40829 1.05623,-2.11243 v 0 c 0,1.05621 0,2.11243 -0.35208,3.16865 0,1.05623 0,2.11245 0,3.16867 l 0.35208,13.02674 h 3.87281 l 14.08296,-24.2931 h -4.22489 l -7.39355,14.08296 c -0.70415,1.05622 -1.05623,2.11244 -1.40829,3.16867 -0.35208,1.05621 -0.70416,2.11243 -1.40831,2.81659 v 0 c 0,-0.70416 0,-1.76038 0,-2.81659 0,-1.05623 0,-2.11245 0,-3.52075 l -0.35206,-13.73088 h -3.52075 l -8.44978,14.08296 c -0.70414,1.05622 -1.40829,2.46451 -1.76037,3.16867 -0.70414,1.05621 -1.05622,1.76037 -1.40829,2.81659 v 0 c 0,-0.70416 0,-1.4083 0.35207,-1.76038 0,-0.70415 0,-1.40829 0,-2.11244 0,-0.70415 0,-1.4083 0,-2.46452 l 0.35208,-13.73088 z m -33.44702,0 0.35207,24.29312 h 3.87281 l 8.09771,-13.37882 c 0.35207,-0.70414 0.70415,-1.4083 1.05621,-2.11244 0.35208,-0.70415 0.70416,-1.40829 1.05623,-2.11245 0.35207,-0.70414 0.70415,-1.40829 1.05622,-2.11243 v 0 c 0,1.05621 0,2.11243 -0.35207,3.16865 0,1.05623 0,2.11245 0,3.16867 l 0.35207,13.02674 h 3.87281 l 14.08296,-24.2931 h -4.22488 l -7.74563,13.73088 c -0.70414,1.05622 -1.05622,2.11245 -1.4083,3.16867 -0.35207,1.05622 -0.70415,2.11245 -1.40829,2.81659 v 0 c 0,-0.70414 0,-1.76037 0,-2.81659 0,-1.05622 0,-2.11245 0,-3.52074 l -0.35208,-13.73089 h -3.52074 l -8.44977,14.08296 c -0.70415,1.05622 -1.4083,2.46452 -1.76037,3.16867 -0.70415,1.05622 -1.05622,1.76037 -1.4083,2.81659 v 0 c 0,-0.70414 0,-1.4083 0.35208,-1.76037 0,-0.70414 0,-1.4083 0,-2.11244 0,-0.70415 0,-1.40831 0,-2.46452 l 0.35207,-13.73089 z m -33.09497,0 0.35208,24.29312 h 3.52074 l 8.0977,-13.37882 c 0.35208,-0.70414 0.70415,-1.4083 1.05623,-2.11244 0.35206,-0.70415 0.70414,-1.40829 1.05622,-2.11245 0.35207,-0.70414 0.70414,-1.40829 1.05622,-2.11243 v 0 c 0,1.05621 0,2.11243 -0.35208,3.16865 0,1.05623 0,2.11245 0,3.16867 l 0.35208,13.02674 h 3.87282 l 14.08296,-24.2931 h -4.22489 l -7.39356,14.08296 c -0.70414,1.05622 -1.05622,2.11244 -1.4083,3.16867 -0.35207,1.05621 -0.70414,2.11243 -1.40829,2.81659 v 0 c 0,-0.70416 0,-1.76038 0,-2.81659 0,-1.05623 0,-2.11245 0,-3.52075 l -0.35208,-13.73088 h -3.52074 l -8.44977,14.08296 c -0.70415,1.05622 -1.4083,2.46451 -1.76037,3.16867 -0.70415,1.05621 -1.05622,1.76037 -1.4083,2.81659 v 0 c 0,-0.70416 0,-1.4083 0.35208,-1.76038 0,-0.70415 0,-1.40829 0,-2.11244 0,-0.70415 0,-1.4083 0,-2.46452 l 0.35207,-13.73088 z"
   id="path8"
   inkscape:connector-curvature="0"
   style="fill:#175fad;stroke-width:3.52074051"
   inkscape:export-filename="G:\Users\suitedoalex\sites\kabum-logo-4.png"
   inkscape:export-xdpi="69.188751"
   inkscape:export-ydpi="69.188751" />
<path
   class="st3"
   d="m 429.85335,349.38255 c 1.40829,-3.52073 2.46452,-7.04148 3.87282,-10.21014 v 0 c 1.05622,-2.81659 2.46451,-5.98526 3.87281,-8.44978 1.40829,-2.11245 3.52074,-4.22489 6.33733,-3.52075 2.81659,0.70416 3.87282,3.52075 4.2249,5.98527 0.35206,2.81659 0,5.63318 0,8.44977 l -0.35208,7.39355 c 10.91429,-0.70414 21.82859,-2.11244 32.39081,-3.52073 1.76037,-2.81659 3.16866,-5.98527 4.92903,-9.15392 1.76038,-3.52075 3.87281,-7.39357 6.68941,-10.21016 0.70415,-1.05621 2.11244,-2.46451 3.16867,-3.16866 1.76037,-1.05622 3.52073,-1.76037 5.2811,-0.70416 3.52075,1.76038 2.81661,6.33734 2.11245,9.506 v 0 l -2.46451,9.85808 c 4.57696,-1.05622 8.80185,-2.46451 13.02673,-3.52074 6.68941,-18.65993 11.61845,-37.67192 15.13919,-57.03599 v 0 0 c 0.35207,-2.11245 1.4083,-6.33733 -0.70415,-8.0977 -1.4083,-1.05622 -3.52074,-0.70416 -4.92904,-0.70416 -2.81659,0.35208 -5.63318,1.76038 -7.74563,3.16867 -2.11245,1.40831 -3.87281,3.16867 -5.2811,5.28111 v 0 c -10.21015,15.84334 -20.06823,32.03875 -29.9263,47.88207 -2.46452,3.87282 -7.39356,7.39356 -11.97052,5.28111 -3.52074,-1.40829 -4.57696,-5.28111 -4.57696,-8.44978 0.70415,-13.02673 1.76037,-26.05347 2.46452,-39.08022 0,-4.22488 -0.35207,-10.56221 -5.28111,-12.32258 -2.11245,-0.70415 -4.22489,0 -5.98526,0.70415 -3.16866,2.11245 -5.63319,5.2811 -7.39356,8.80184 v 0 c -12.32259,21.12445 -21.47651,44.00926 -29.57422,66.89408 4.2249,-1.05623 8.44978,-1.05623 12.67467,-1.05623 z M 298.88182,309.95026 c 0,-2.81659 0.70414,-5.98526 1.40829,-8.80185 1.05622,-4.92904 3.87281,-15.84333 10.21014,-15.84333 7.39356,0 14.78712,0 21.82859,-0.35208 v 0 c 13.02674,0 17.25163,7.04149 12.3226,18.65992 v 0 0 c -1.4083,2.8166 -3.52074,5.28112 -5.63319,7.74563 -7.04147,7.04149 -16.19541,8.44978 -26.05347,8.0977 -1.05623,0 -2.11245,0 -2.81659,0 -3.16867,0 -6.33734,-0.35206 -8.80186,-2.46451 -2.46451,-1.76037 -2.81659,-4.22488 -2.46451,-7.04148 z m 106.32635,39.08021 c 0.35208,-1.76036 1.05622,-3.16865 1.76037,-4.92903 4.22489,-11.97052 7.74563,-23.94103 10.9143,-35.91156 0,-1.05621 0,-3.87281 -1.05622,-4.22488 -0.35208,-0.35208 -1.05623,0 -1.40831,0 -1.76036,0.70415 -3.16866,2.11245 -4.57696,3.16867 v 0 c -2.46451,2.46452 -4.92904,7.74562 -5.98526,10.91429 -2.46451,5.98526 -3.8728,11.97052 -5.63318,18.30786 -1.40829,4.22488 -2.46452,8.44977 -3.87282,12.67465 3.16867,0 6.33734,0 9.85808,0 z m -44.71341,-2.46451 c 0.35208,-0.35208 0.35208,-1.05622 0.70416,-1.4083 1.40829,-4.22488 3.16866,-8.44978 4.92903,-12.67466 1.4083,-3.16867 2.46452,-6.68941 3.87281,-10.21016 1.4083,-4.22488 2.46453,-8.44977 3.16867,-13.02673 0,-1.40829 0.35208,-4.22488 -1.4083,-5.28111 -1.05621,-0.70414 -2.46451,-0.35208 -3.8728,0 -2.46453,0.70415 -4.2249,2.81659 -5.6332,5.28111 -4.22488,7.74563 -7.74562,16.1954 -9.85806,24.64518 v 0.35208 0 c -1.76037,4.22488 -5.28112,9.85807 -10.56223,8.44978 -2.81659,-0.70415 -4.92904,-3.16868 -5.2811,-5.98527 v 0 0 c -0.70416,-3.52073 -2.81659,-6.33733 -5.63319,-8.44977 l -3.52075,-2.8166 3.87282,-2.46451 c 14.78712,-10.21014 24.29312,-21.82859 21.82859,-40.84059 -2.46451,-10.21014 -20.77237,-10.21014 -28.87006,-10.21014 v 0 c -12.67467,0 -25.34933,-0.35208 -37.67192,-0.70416 -2.46453,7.74563 -5.28112,15.49126 -7.74563,23.23689 -4.57697,13.73088 -8.80186,27.81384 -12.3226,41.89682 7.04148,0.70414 14.43504,1.76036 21.82859,2.46451 0.70415,-1.4083 1.76037,-2.81659 2.8166,-3.87282 l -0.35208,-1.40829 h 1.4083 c 8.44978,0 17.25162,0.35207 25.7014,0.35207 h 0.35207 c 5.63319,0.35208 11.61845,2.81659 14.08296,8.44978 0,0.35208 0.35208,0.70415 0.35208,1.4083 9.506,1.40829 18.65992,2.11245 27.81384,2.81659 z M 253.11219,334.59544 c 1.05622,-2.8166 1.76037,-5.28111 2.46451,-8.0977 1.4083,-4.92904 3.16867,-12.67467 0.35208,-17.25163 0,-0.35207 -0.35208,-0.70415 -0.70414,-1.05623 -1.40831,-1.05621 -2.46453,-2.11243 -3.87282,-2.46451 -6.68941,-3.52074 -14.78712,-3.52074 -21.82859,-2.11245 -6.33733,1.40831 -13.37882,3.87282 -18.65992,7.74563 -2.46453,1.76037 -7.39357,5.28111 -7.74563,8.80186 v 0.35207 0.35207 c 0,1.40829 3.52074,2.8166 4.57696,3.16867 1.05622,0.35207 4.22489,1.05623 5.2811,0.35207 v 0 l 0.35208,-0.35207 c 6.33733,-7.04148 13.37882,-11.26636 22.88482,-7.04148 2.11244,0.70414 3.52073,2.46451 4.57696,4.57696 2.11244,3.87281 1.05622,8.80185 -1.4083,12.32259 4.92903,-0.35207 9.15393,0.35208 13.73089,0.70415 z m -88.72266,-4.22489 c 0.70415,-8.44977 3.16866,-16.89955 8.0977,-24.99726 7.04149,-11.97051 18.30786,-21.47651 29.22215,-29.92629 1.05622,-1.05622 2.11244,-3.16867 1.05622,-4.57696 -1.05622,-1.4083 -3.52074,-0.70414 -4.57696,0 -8.0977,4.22489 -16.19541,8.80186 -23.58896,14.08296 -9.15393,6.33733 -17.60371,13.37882 -25.70141,21.47652 -2.11244,2.11244 -4.57696,3.87281 -7.04148,4.57696 -2.46452,0.70415 -5.28111,0.35207 -7.04148,-1.05622 -2.46452,-2.11244 -2.81659,-5.98526 -2.11244,-9.15393 v -0.35207 c 2.46451,-7.39356 4.92903,-14.78711 6.33733,-22.18066 0.35207,-1.76037 0.70415,-3.87282 0,-5.28111 0,-0.35208 -0.35207,-0.70416 -0.70415,-1.05622 -0.35208,0 -1.40829,0 -1.76037,0.35206 -1.4083,0.70416 -2.81659,2.46453 -3.52074,4.2249 -9.85807,16.89955 -17.6037,34.85532 -24.29311,53.16318 -2.11244,5.63318 -3.87282,11.26637 -5.98525,16.89955 16.54747,-10.21014 37.67192,-15.13918 61.61295,-16.19541 z m 377.42337,-4.22489 c 7.04147,-15.49125 13.02674,-31.68666 18.30784,-47.88206 0.70415,-1.76037 0.70415,-3.87282 -0.70414,-5.28111 -1.40831,-1.4083 -3.52074,-1.4083 -5.28112,-1.05622 -2.11244,0.35206 -3.87281,1.40829 -4.92903,3.52073 v 0 c -2.46452,4.2249 -4.57696,9.15393 -6.33734,13.7309 -2.46451,5.98525 -4.22488,11.97051 -5.98525,18.30784 -2.46452,7.74563 -4.57696,15.84333 -6.68941,23.58896 3.87282,-1.05622 7.74563,-2.81659 11.61845,-4.92904 z"
   id="path10"
   inkscape:connector-curvature="0"
   style="clip-rule:evenodd;fill:#097bbb;fill-rule:evenodd;stroke-width:3.52074051"
   inkscape:export-filename="G:\Users\suitedoalex\sites\kabum-logo-4.png"
   inkscape:export-xdpi="69.188751"
   inkscape:export-ydpi="69.188751" />
<path
   class="st4"
   d="m 584.06178,356.07196 c -5.28112,-5.63318 -23.23689,-18.30785 -30.98251,-18.30785 -19.36408,-0.35208 9.506,21.47651 11.61843,24.99726 6.68941,6.6894 -33.44702,13.02673 -32.74288,28.16592 0,2.46451 1.40829,2.81659 3.52074,2.11244 8.09771,-3.16867 22.88481,-10.9143 28.16592,-13.73089 8.09771,-4.22488 30.27837,-13.02674 20.4203,-23.23688 z m 30.27837,1.40829 c -4.92904,-5.28111 -21.82859,-16.89955 -28.518,-17.25163 -17.95578,-0.35207 8.80185,20.06822 10.91429,23.23689 5.98526,6.33733 -30.98251,11.97052 -30.27837,26.05348 0,2.11244 1.4083,2.46452 3.52075,1.76036 7.39355,-2.81659 21.12443,-10.21014 26.05347,-12.67465 6.68941,-3.52074 27.1097,-11.61845 18.30786,-21.12445 z"
   id="path12"
   inkscape:connector-curvature="0"
   style="clip-rule:evenodd;fill:#f05223;fill-rule:evenodd;stroke-width:3.52074051"
   inkscape:export-filename="G:\Users\suitedoalex\sites\kabum-logo-4.png"
   inkscape:export-xdpi="69.188751"
   inkscape:export-ydpi="69.188751" />
<path
   class="st5"
   d="m 549.55852,340.93278 c 0,0.70414 1.4083,2.81659 1.76037,3.16866 1.4083,2.46452 3.52075,4.57697 5.28111,6.33734 2.11245,2.11243 4.22489,4.22488 6.68941,6.33733 1.05622,1.05622 2.81659,2.46451 3.87282,4.22489 0.70414,0.70414 1.40829,2.11243 1.40829,3.16866 0,0 0,0 0,0.35208 1.05622,-0.35208 1.76037,-0.35208 2.81659,-0.70415 4.22489,-1.05622 8.44978,-1.76038 12.67467,-2.46452 0,-1.40829 -0.70415,-2.46452 -1.76037,-3.16866 -4.57696,-4.92904 -22.53274,-17.60371 -28.87008,-17.60371 -0.70414,-0.35208 -3.16866,-0.35208 -3.87281,0.35208 z"
   id="path14"
   inkscape:connector-curvature="0"
   style="clip-rule:evenodd;fill:#f26b21;fill-rule:evenodd;stroke-width:3.52074051"
   inkscape:export-filename="G:\Users\suitedoalex\sites\kabum-logo-4.png"
   inkscape:export-xdpi="69.188751"
   inkscape:export-ydpi="69.188751" />
<path
   class="st5"
   d="m 582.30141,343.39729 c 0,2.11245 5.28111,7.39355 6.68941,8.80185 2.11243,2.11245 3.87281,3.87282 5.98525,5.63319 0.35208,0.35208 1.05622,1.05622 2.11245,1.76037 5.2811,-0.35208 10.56222,-0.35208 15.13918,-0.35208 -4.57696,-4.57696 -20.42029,-15.84333 -26.40555,-15.84333 -0.70415,-0.35207 -2.81659,-0.35207 -3.52074,0 z"
   id="path16"
   inkscape:connector-curvature="0"
   style="clip-rule:evenodd;fill:#f26b21;fill-rule:evenodd;stroke-width:3.52074051"
   inkscape:export-filename="G:\Users\suitedoalex\sites\kabum-logo-4.png"
   inkscape:export-xdpi="69.188751"
   inkscape:export-ydpi="69.188751" />
</svg>